<svg width="300" height="72" viewBox="0 0 300 72" fill="none" xmlns="http://www.w3.org/2000/svg">
<path d="M276.94 71.85C272.192 71.85 263.956 70.9779 260.08 68.8463C260.371 64.4862 260.952 57.1224 261.34 53.3436H261.921L276.261 70.2997H277.133C279.459 70.2997 281.59 68.3619 281.59 64.9706C281.59 54.2156 260.371 54.6032 260.371 40.36C260.371 29.8957 269.673 25.1479 283.722 25.1479C289.051 25.1479 293.896 26.02 298.74 28.1516C298.547 32.2211 297.965 39.0035 297.578 42.9761H297.093L282.947 26.6982H282.753C279.943 26.6982 278.781 29.1205 278.781 31.5428C278.781 41.4258 300 43.1699 300 58.7695C300 68.4587 290.989 71.85 276.94 71.85Z" fill="#222222"/>
<path d="M258.324 66.9085L258.614 67.5867C256.289 70.5904 252.316 71.85 247.278 71.85C240.495 71.85 235.748 69.7183 233.713 66.0364C231 69.6214 225.768 71.85 220.439 71.85C212.397 71.85 207.649 67.4898 207.649 60.3198C207.649 51.115 215.594 46.2704 232.647 45.0108V35.6123C232.647 29.5081 231.484 26.6982 229.062 26.6982H228.481L213.269 45.1077H212.784C211.912 37.8408 211.621 34.1589 211.234 27.6672C216.272 26.1169 221.892 25.1479 228.771 25.1479C245.34 25.1479 252.026 31.6397 252.026 41.5227V63.4203C252.026 66.0364 253.576 67.4898 255.611 67.4898C256.386 67.4898 257.258 67.296 258.324 66.9085ZM226.349 58.0913C226.349 63.5172 228.19 65.552 230.612 65.552C231.387 65.552 231.872 65.552 232.647 64.9706V46.658C228.384 47.9176 226.349 51.9871 226.349 58.0913Z" fill="#222222"/>
<path d="M204.433 65.1645L205.208 66.2304C202.883 69.4278 197.942 71.8501 191.547 71.8501C182.148 71.8501 176.238 66.6179 176.238 56.4443V28.1517H169.649V27.1828L177.013 24.7605C181.761 20.1097 188.931 13.7148 195.132 8.38574H195.616V26.117H204.918V28.1517H195.616V61.192C195.616 64.777 197.166 66.8117 199.976 66.8117C201.43 66.8117 203.077 66.3272 204.433 65.1645Z" fill="#222222"/>
<path d="M152.57 44.3327L166.425 67.6837C168.654 68.5557 170.301 69.4277 172.239 70.3967V70.8811H138.036V70.3967C140.361 69.3308 142.008 68.5557 144.431 67.6837L135.807 53.1498L128.637 62.7422C130.478 64.9707 132.9 68.3619 134.548 70.7842V70.8811H116.235V70.7842C118.464 68.6526 122.339 65.3583 126.021 62.7422L134.644 51.4058L122.242 30.574C120.789 29.2175 119.432 27.861 117.785 26.2138V26.1169H148.694V26.2138C147.434 27.5703 145.981 28.9268 144.237 30.2833L151.504 42.4917L157.608 34.3528C155.476 31.8336 153.345 28.8299 151.698 26.2138V26.1169H170.01V26.2138C167.879 28.2486 163.325 32.2212 160.418 34.3528L152.57 44.3327Z" fill="#222222"/>
<path d="M103.399 22.532C96.7134 22.532 92.1595 17.7843 92.1595 11.2925C92.1595 4.80072 96.7134 0.149902 103.399 0.149902C110.085 0.149902 114.735 4.80072 114.735 11.2925C114.735 17.7843 110.085 22.532 103.399 22.532ZM113.185 66.7148C114.832 68.2651 115.704 69.4278 116.673 70.7843V70.8812H89.4465V70.7843C90.7061 69.4278 91.8688 68.2651 93.8067 66.7148V35.8062L89.4465 31.8336V31.2523C95.357 28.9269 106.5 26.117 113.185 25.0512V66.7148Z" fill="#222222"/>
<path d="M76.1572 12.3583L78.7733 66.8117C80.8081 68.1682 82.4552 69.4278 84.0055 70.7843V70.8812H54.2596V70.7843C55.713 69.3309 57.1664 68.1682 59.2011 66.8117L57.1664 15.4589H56.9726L37.8848 70.203H30.9086L13.1773 14.49L10.3675 62.1609C13.7587 64.9708 16.8592 67.9744 19.3784 70.7843V70.8812H0V70.7843C2.32541 68.0713 5.71664 64.6801 8.52651 62.1609L11.5302 12.4552C9.01097 10.7112 7.3638 9.54847 5.42596 7.80441V7.70752H31.0055L43.3108 49.0805L57.6508 7.70752H82.1645V7.80441C80.4205 9.45158 78.5795 10.905 76.1572 12.3583Z" fill="#222222"/>
</svg>
